<svg width="24" height="24" viewBox="0 0 24 24" fill="none" xmlns="http://www.w3.org/2000/svg">
<g id="fluent:building-bank-28-regular">
<path id="Vector" d="M12.002 7.99756C12.3999 7.99756 12.7814 7.83953 13.0627 7.55823C13.344 7.27692 13.502 6.89539 13.502 6.49756C13.502 6.09974 13.344 5.71821 13.0627 5.4369C12.7814 5.1556 12.3999 4.99756 12.002 4.99756C11.6042 4.99756 11.2227 5.1556 10.9414 5.4369C10.6601 5.71821 10.502 6.09974 10.502 6.49756C10.502 6.89539 10.6601 7.27692 10.9414 7.55823C11.2227 7.83953 11.6042 7.99756 12.002 7.99756ZM12.892 1.29256C12.6342 1.10252 12.3223 1 12.002 1C11.6817 1 11.3699 1.10252 11.112 1.29256L1.61204 8.29756C0.448039 9.15656 1.05504 11.0046 2.50204 11.0046H3.00204V18.2466C2.40961 18.4934 1.90352 18.9101 1.5476 19.4442C1.19167 19.9783 1.00184 20.6058 1.00204 21.2476V22.7476C1.00204 23.1616 1.33804 23.4976 1.75204 23.4976H22.252C22.451 23.4976 22.6417 23.4185 22.7824 23.2779C22.923 23.1372 23.002 22.9465 23.002 22.7476V21.2476C23.002 20.6059 22.8121 19.9787 22.4562 19.4448C22.1003 18.9109 21.5943 18.4943 21.002 18.2476V11.0046H21.501C22.949 11.0046 23.556 9.15656 22.391 8.29756L12.892 1.29256ZM4.50204 17.9976V11.0046H7.00204V17.9976H4.50204ZM19.502 11.0046V17.9976H17.002V11.0046H19.502ZM15.502 11.0046V17.9976H12.752V11.0046H15.502ZM11.252 11.0046V17.9976H8.50204V11.0046H11.252ZM2.50204 9.50456L12.002 2.49956L21.501 9.50456H2.50204ZM2.50204 21.2476C2.50204 20.2816 3.28604 19.4976 4.25204 19.4976H19.752C20.718 19.4976 21.502 20.2816 21.502 21.2476V21.9976H2.50204V21.2476Z" fill="white"/>
</g>
</svg>
