<svg width="36" height="36" viewBox="0 0 36 36" fill="none" xmlns="http://www.w3.org/2000/svg">
<g clip-path="url(#clip0_1713_3907)">
<circle cx="18" cy="18" r="18" fill="#FFF176"/>
<circle cx="18" cy="18" r="16.875" fill="#F2BC1A"/>
<path fill-rule="evenodd" clip-rule="evenodd" d="M14.9919 8.94289L8.3648 20.3337C8.15188 20.6998 8.10909 21.1198 8.21228 21.5011C8.31503 21.8825 8.56344 22.2249 8.93246 22.4363C9.17896 22.5775 9.44976 22.6432 9.71704 22.6407V22.6399H9.75476C9.87458 22.6359 9.99342 22.6183 10.1088 22.5876C10.493 22.4855 10.8381 22.2389 11.0511 21.8728L16.2447 12.9457L17.6781 10.4821L17.6792 10.4828C17.9004 10.0966 18.2241 9.76197 18.6381 9.52475C19.2598 9.1687 19.971 9.09717 20.6163 9.26872C21.2618 9.44027 21.8416 9.85517 22.2006 10.4721L28.8275 21.8629C28.9735 22.1137 28.8869 22.4345 28.6342 22.5793C28.3815 22.7241 28.058 22.6381 27.9123 22.3873L21.2852 10.9965C21.0723 10.6304 20.727 10.3839 20.3428 10.2818C19.9586 10.1796 19.5354 10.2218 19.1666 10.4332C18.7977 10.6445 18.5493 10.987 18.4465 11.3683C18.3434 11.7497 18.386 12.1695 18.599 12.5356L23.7926 21.4627L25.226 23.9264L25.2241 23.9275C25.4496 24.31 25.5792 24.7546 25.5792 25.2279C25.5792 25.9402 25.2858 26.5873 24.8133 27.0561C24.3409 27.5249 23.6889 27.8158 22.971 27.8158H9.71704C9.42531 27.8158 9.18845 27.5811 9.18845 27.2913C9.18845 27.0018 9.42531 26.7669 9.71704 26.7669H22.971C23.3971 26.7669 23.7848 26.5937 24.0662 26.3145C24.3475 26.0354 24.5219 25.6506 24.5222 25.2279C24.5222 24.8051 24.3475 24.4204 24.0662 24.1414C23.7848 23.862 23.3971 23.6888 22.971 23.6888H12.5836H9.77285C9.30797 23.7014 8.8344 23.5912 8.40388 23.3446C7.78239 22.9885 7.36424 22.4129 7.19138 21.7724C7.01838 21.1321 7.09052 20.4262 7.44944 19.8093L14.0765 8.41846C14.2223 8.16768 14.5457 8.08177 14.7984 8.22665C15.0511 8.37134 15.1377 8.6921 14.9919 8.94289ZM22.5498 22.6399C22.5945 22.6296 22.6383 22.6128 22.6797 22.5888C22.9067 22.4589 22.9842 22.1714 22.8535 21.9463L22.5246 21.3812L17.9003 13.4327C17.8675 13.3965 17.8287 13.3646 17.784 13.339C17.5572 13.2091 17.2672 13.2862 17.1363 13.5111L16.8076 14.0762L12.1766 22.0363C12.1641 22.0784 12.1575 22.1232 12.1575 22.1694C12.1575 22.4291 12.3696 22.6398 12.6313 22.6399H13.2888H22.5498ZM15.3468 10.3621C15.4197 10.2367 15.5371 10.1527 15.6676 10.1179C15.7982 10.0831 15.9424 10.0978 16.0687 10.1703C16.1951 10.2425 16.2799 10.359 16.3148 10.4887L16.3145 10.4888C16.3494 10.6187 16.3348 10.7616 16.262 10.8865L10.4093 20.9467C10.3366 21.0715 10.2195 21.1555 10.0887 21.1904L10.088 21.1906C9.95722 21.2253 9.81312 21.2107 9.68735 21.1385C9.56158 21.0663 9.47671 20.9499 9.44149 20.82L9.44135 20.8201C9.40613 20.6904 9.421 20.5474 9.494 20.4222L15.3468 10.3621ZM10.7781 25.7523C10.6322 25.7523 10.5001 25.6935 10.4044 25.5986C10.3089 25.5038 10.2495 25.3727 10.2495 25.2279C10.2495 25.0831 10.3089 24.9519 10.4044 24.8571L10.4048 24.8573C10.5006 24.7622 10.6328 24.7035 10.7781 24.7035H22.4836C22.629 24.7035 22.7608 24.7621 22.8567 24.8571L22.8574 24.8575C22.9528 24.9526 23.0123 25.0837 23.0123 25.2279C23.0123 25.3721 22.9528 25.5033 22.8571 25.5984L22.8574 25.5986C22.7617 25.6935 22.6296 25.7523 22.4836 25.7523H10.7781ZM26.5488 22.3807C26.584 22.251 26.5693 22.1081 26.4962 21.9828L20.6434 11.9228C20.5705 11.7974 20.4533 11.7132 20.3226 11.6785V11.6788C20.1915 11.6441 20.0476 11.6587 19.9214 11.7308C19.7958 11.8029 19.711 11.9193 19.6758 12.0491L19.6755 12.0498C19.6408 12.1796 19.6557 12.3223 19.7282 12.4472L25.5809 22.5072C25.6536 22.6321 25.771 22.7164 25.902 22.7512L25.9019 22.7515C26.0325 22.7862 26.1764 22.7716 26.3028 22.6992C26.4292 22.6267 26.514 22.5103 26.5488 22.3807Z" fill="#FFF176"/>
</g>
<defs>
<clipPath id="clip0_1713_3907">
<rect width="36" height="36" fill="white"/>
</clipPath>
</defs>
</svg>
