<svg width="24" height="24" viewBox="0 0 24 24" fill="none" xmlns="http://www.w3.org/2000/svg">
<path d="M6 4.9635V3.5C6 3.10218 6.15804 2.72064 6.43934 2.43934C6.72064 2.15804 7.10218 2 7.5 2H20.5C20.8978 2 21.2794 2.15804 21.5607 2.43934C21.842 2.72064 22 3.10218 22 3.5V16.5C22 16.8978 21.842 17.2794 21.5607 17.5607C21.2794 17.842 20.8978 18 20.5 18H19.0085" stroke="white"/>
<path d="M17.5 5H3.5C2.67157 5 2 5.67157 2 6.5V20.5C2 21.3284 2.67157 22 3.5 22H17.5C18.3284 22 19 21.3284 19 20.5V6.5C19 5.67157 18.3284 5 17.5 5Z" stroke="white" stroke-linejoin="round"/>
<path d="M9.22002 11.555L11.866 8.8C12.5915 8.0745 13.7845 8.09 14.53 8.836C15.2755 9.5815 15.2915 10.7745 14.566 11.5L13.611 12.5115M6.73302 14.3735C6.47802 14.6285 5.95052 15.1385 5.95052 15.1385C5.22452 15.864 5.20452 17.1575 5.95052 17.9035C6.69552 18.6485 7.88852 18.665 8.61452 17.939L11.1965 15.595" stroke="white" stroke-linecap="round" stroke-linejoin="round"/>
<path d="M9.33148 14.164C8.99935 13.834 8.79839 13.3946 8.76598 12.9275C8.74683 12.6655 8.78425 12.4024 8.87569 12.1561C8.96714 11.9098 9.11047 11.686 9.29598 11.5M11.1605 12.9305C11.906 13.676 11.922 14.869 11.1965 15.595" stroke="white" stroke-linecap="round" stroke-linejoin="round"/>
</svg>
