<svg width="24" height="24" viewBox="0 0 24 24" fill="none" xmlns="http://www.w3.org/2000/svg">
<g id="uiw:logout" clip-path="url(#clip0_1791_770)">
<path id="Vector" d="M12.288 0C16.062 0 19.5564 1.674 21.8736 4.4928C21.9396 4.5727 21.9889 4.66507 22.0185 4.7644C22.0481 4.86373 22.0574 4.968 22.0458 5.071C22.0343 5.174 22.0022 5.27363 21.9513 5.36396C21.9005 5.45429 21.8321 5.53347 21.75 5.5968C21.583 5.72772 21.3715 5.78842 21.1605 5.76602C20.9494 5.74361 20.7554 5.63987 20.6196 5.4768C19.6064 4.24947 18.3333 3.26235 16.8923 2.58668C15.4513 1.91101 13.8783 1.56363 12.2868 1.5696C6.3888 1.5696 1.6068 6.24 1.6068 12C1.6068 17.76 6.3888 22.4304 12.2868 22.4304C13.9013 22.4366 15.4964 22.0792 16.9539 21.3847C18.4114 20.6902 19.6938 19.6765 20.706 18.4188C20.8395 18.254 21.032 18.1478 21.2425 18.1224C21.4531 18.0971 21.6652 18.1548 21.834 18.2832C21.9168 18.3454 21.9862 18.4237 22.0381 18.5133C22.09 18.6029 22.1234 18.702 22.1363 18.8048C22.1492 18.9075 22.1413 19.0118 22.1131 19.1115C22.0848 19.2111 22.0369 19.3041 21.972 19.3848C19.6584 22.2768 16.1172 24 12.288 24C5.4996 24 0 18.6276 0 12C0 5.3724 5.5008 0 12.288 0ZM20.5176 8.592L23.7648 11.8404C24.0792 12.1536 24.0852 12.6564 23.7792 12.9636L20.6064 16.1352C20.4558 16.2825 20.2529 16.364 20.0423 16.3618C19.8317 16.3595 19.6306 16.2737 19.4832 16.1232C19.4084 16.0503 19.3488 15.9633 19.3076 15.8673C19.2665 15.7713 19.2447 15.6682 19.2434 15.5637C19.2422 15.4593 19.2616 15.3556 19.3005 15.2587C19.3393 15.1618 19.397 15.0734 19.47 14.9988L21.3264 13.1424H8.9544C8.85008 13.1437 8.74652 13.1244 8.64966 13.0856C8.55279 13.0469 8.46451 12.9894 8.38985 12.9165C8.31519 12.8437 8.25561 12.7568 8.21453 12.6609C8.17344 12.565 8.15165 12.4619 8.1504 12.3576C8.1504 11.9232 8.5104 11.5716 8.9544 11.5716H21.2772L19.4076 9.702C19.2569 9.55479 19.1709 9.35376 19.1684 9.14313C19.166 8.9325 19.2472 8.72951 19.3944 8.5788C19.5451 8.43164 19.7481 8.35035 19.9587 8.35283C20.1694 8.3553 20.3704 8.44133 20.5176 8.592Z" fill="white"/>
</g>
<defs>
<clipPath id="clip0_1791_770">
<rect width="24" height="24" fill="white"/>
</clipPath>
</defs>
</svg>
