<svg width="16" height="16" viewBox="0 0 16 16" fill="none" xmlns="http://www.w3.org/2000/svg">
<g id="icon" clip-path="url(#clip0_1762_3899)">
<path id="Vector" d="M13.2822 0.715955C12.8238 0.257536 12.202 0 11.5537 0C10.9054 0 10.2836 0.257536 9.82519 0.715955L1.17869 9.36395C0.926539 9.61595 0.752563 9.93542 0.67769 10.284L0.0111902 13.394C-0.0063864 13.4756 -0.00321615 13.5604 0.0204113 13.6405C0.0440387 13.7207 0.0873701 13.7936 0.146447 13.8527C0.205523 13.9118 0.278461 13.9551 0.358598 13.9787C0.438734 14.0024 0.523513 14.0055 0.60519 13.988L3.71519 13.3215C4.06372 13.2466 4.3832 13.0726 4.63519 12.8205L13.2827 4.17295C13.741 3.71446 13.9984 3.09272 13.9984 2.44445C13.9984 1.79618 13.741 1.17445 13.2827 0.715955H13.2822ZM10.5322 1.42295C10.8052 1.16223 11.1694 1.01867 11.5468 1.02301C11.9243 1.02734 12.2851 1.17922 12.552 1.44614C12.8189 1.71307 12.9708 2.07386 12.9751 2.45132C12.9795 2.82879 12.8359 3.19297 12.5752 3.46595L12.1252 3.91595L10.0822 1.87345L10.5322 1.42295ZM9.37519 2.58045L11.4182 4.62345L3.92869 12.114C3.81281 12.2298 3.66591 12.3097 3.50569 12.344L1.15019 12.849L1.65519 10.494C1.68948 10.3337 1.76936 10.1868 1.88519 10.071L9.37419 2.58096L9.37519 2.58045Z" fill="#2D3232"/>
<path id="Vector 1" d="M0 16H15" stroke="#2D3232" stroke-width="3"/>
</g>
<defs>
<clipPath id="clip0_1762_3899">
<rect width="16" height="16" fill="white"/>
</clipPath>
</defs>
</svg>
