<svg width="24" height="24" viewBox="0 0 24 24" fill="none" xmlns="http://www.w3.org/2000/svg">
<path d="M2.29318 8.85963C2.73622 7.49063 3.4642 6.23099 4.42918 5.16363C4.50898 5.07545 4.61318 5.01297 4.72855 4.98412C4.84393 4.95528 4.96528 4.96137 5.07718 5.00163L7.37878 5.82483C7.54263 5.88334 7.71725 5.90552 7.89052 5.88983C8.0638 5.87415 8.23159 5.82097 8.38227 5.73399C8.53295 5.647 8.66291 5.52829 8.76315 5.38609C8.86339 5.24388 8.93151 5.08158 8.96278 4.91043L9.40198 2.50323C9.42319 2.38605 9.4788 2.27783 9.56171 2.19235C9.64463 2.10687 9.7511 2.048 9.86758 2.02323C11.2734 1.72386 12.7265 1.72386 14.1324 2.02323C14.2489 2.048 14.3553 2.10687 14.4383 2.19235C14.5212 2.27783 14.5768 2.38605 14.598 2.50323L15.0372 4.91043C15.0685 5.08158 15.1366 5.24388 15.2368 5.38609C15.3371 5.52829 15.467 5.647 15.6177 5.73399C15.7684 5.82097 15.9362 5.87415 16.1094 5.88983C16.2827 5.90552 16.4573 5.88334 16.6212 5.82483L18.924 5.00163C19.036 4.96151 19.1574 4.95561 19.2728 4.98467C19.3882 5.01373 19.4923 5.07644 19.572 5.16483C20.5368 6.23184 21.2648 7.49106 21.708 8.85963C21.7444 8.97279 21.7464 9.09423 21.7137 9.20853C21.6811 9.32283 21.6151 9.42485 21.5244 9.50163L19.6584 11.0856C19.5258 11.1983 19.4193 11.3384 19.3463 11.4963C19.2733 11.6542 19.2355 11.8261 19.2355 12C19.2355 12.174 19.2733 12.3459 19.3463 12.5038C19.4193 12.6617 19.5258 12.8018 19.6584 12.9144L21.5244 14.4984C21.6149 14.5754 21.6806 14.6774 21.7131 14.7917C21.7456 14.906 21.7434 15.0274 21.7068 15.1404C21.2637 16.5094 20.5358 17.7691 19.5708 18.8364C19.491 18.9246 19.3868 18.9871 19.2714 19.0159C19.156 19.0448 19.0347 19.0387 18.9228 18.9984L16.6212 18.1752C16.4573 18.1167 16.2827 18.0945 16.1094 18.1102C15.9362 18.1259 15.7684 18.1791 15.6177 18.2661C15.467 18.3531 15.3371 18.4718 15.2368 18.614C15.1366 18.7562 15.0685 18.9185 15.0372 19.0896L14.598 21.498C14.5766 21.615 14.5209 21.723 14.438 21.8082C14.3551 21.8934 14.2487 21.9521 14.1324 21.9768C12.7266 22.2763 11.2734 22.2763 9.86758 21.9768C9.7511 21.9521 9.64463 21.8932 9.56171 21.8077C9.4788 21.7222 9.42319 21.614 9.40198 21.4968L8.96278 19.0896C8.93151 18.9185 8.86339 18.7562 8.76315 18.614C8.66291 18.4718 8.53295 18.3531 8.38227 18.2661C8.23159 18.1791 8.0638 18.1259 7.89052 18.1102C7.71725 18.0945 7.54263 18.1167 7.37878 18.1752L5.07718 18.9984C4.96516 19.0385 4.84374 19.0445 4.72836 19.0154C4.61298 18.9863 4.50884 18.9236 4.42918 18.8352C3.46431 17.7682 2.73634 16.509 2.29318 15.1404C2.2566 15.0274 2.25441 14.906 2.28688 14.7917C2.31935 14.6774 2.38503 14.5754 2.47558 14.4984L4.34158 12.9144C4.47414 12.8018 4.58062 12.6617 4.65364 12.5038C4.72667 12.3459 4.76449 12.174 4.76449 12C4.76449 11.8261 4.72667 11.6542 4.65364 11.4963C4.58062 11.3384 4.47414 11.1983 4.34158 11.0856L2.47558 9.50163C2.38503 9.42471 2.31935 9.32263 2.28688 9.20833C2.25441 9.09404 2.2566 8.97268 2.29318 8.85963ZM3.56518 8.85243L5.11798 10.17C5.38351 10.3953 5.59683 10.6757 5.74313 10.9917C5.88943 11.3077 5.96521 11.6518 5.96521 12C5.96521 12.3483 5.88943 12.6923 5.74313 13.0083C5.59683 13.3243 5.38351 13.6047 5.11798 13.83L3.56638 15.1476C3.91678 16.086 4.42198 16.9596 5.05918 17.73L6.97438 17.046C7.30217 16.929 7.65148 16.8847 7.9981 16.9161C8.34473 16.9476 8.68036 17.054 8.98174 17.2281C9.28312 17.4022 9.54302 17.6398 9.74344 17.9243C9.94385 18.2089 10.08 18.5336 10.1424 18.876L10.5084 20.8776C11.496 21.0423 12.504 21.0423 13.4916 20.8776L13.8564 18.8736C13.9185 18.531 14.0545 18.206 14.255 17.9212C14.4555 17.6365 14.7156 17.3988 15.0172 17.2248C15.3188 17.0507 15.6547 16.9445 16.0015 16.9134C16.3484 16.8823 16.6978 16.9272 17.0256 17.0448L18.9408 17.73C19.5791 16.9584 20.0841 16.0856 20.4348 15.1476L18.882 13.83C18.6161 13.605 18.4024 13.3246 18.2559 13.0086C18.1094 12.6926 18.0334 12.3484 18.0334 12C18.0334 11.6517 18.1094 11.3075 18.2559 10.9915C18.4024 10.6754 18.6161 10.3951 18.882 10.17L20.4348 8.85243C20.0841 7.91442 19.5791 7.0416 18.9408 6.27003L17.0256 6.95403C16.6979 7.07105 16.3487 7.11541 16.0021 7.08404C15.6556 7.05266 15.32 6.94631 15.0186 6.77234C14.7172 6.59837 14.4573 6.36096 14.2568 6.07655C14.0564 5.79213 13.9201 5.46753 13.8576 5.12523L13.4916 3.12243C12.504 2.9577 11.496 2.9577 10.5084 3.12243L10.1436 5.12523C10.0812 5.46764 9.94505 5.79237 9.74464 6.07693C9.54422 6.36148 9.28432 6.59904 8.98294 6.77313C8.68156 6.94722 8.34593 7.05368 7.9993 7.08512C7.65268 7.11657 7.30337 7.07225 6.97558 6.95523L5.05918 6.27003C4.42124 7.04169 3.9155 7.9145 3.56518 8.85243ZM9.00238 12C9.00238 11.2044 9.31845 10.4413 9.88106 9.87871C10.4437 9.3161 11.2067 9.00003 12.0024 9.00003C12.798 9.00003 13.5611 9.3161 14.1237 9.87871C14.6863 10.4413 15.0024 11.2044 15.0024 12C15.0024 12.7957 14.6863 13.5587 14.1237 14.1214C13.5611 14.684 12.798 15 12.0024 15C11.2067 15 10.4437 14.684 9.88106 14.1214C9.31845 13.5587 9.00238 12.7957 9.00238 12ZM10.2024 12C10.2024 12.4774 10.392 12.9353 10.7296 13.2728C11.0672 13.6104 11.525 13.8 12.0024 13.8C12.4798 13.8 12.9376 13.6104 13.2752 13.2728C13.6127 12.9353 13.8024 12.4774 13.8024 12C13.8024 11.5226 13.6127 11.0648 13.2752 10.7272C12.9376 10.3897 12.4798 10.2 12.0024 10.2C11.525 10.2 11.0672 10.3897 10.7296 10.7272C10.392 11.0648 10.2024 11.5226 10.2024 12Z" fill="black"/>
</svg>
