<svg width="24" height="24" viewBox="0 0 24 24" fill="none" xmlns="http://www.w3.org/2000/svg">
<g id="clarity:store-line" clip-path="url(#clip0_1791_743)">
<path id="Vector" d="M18.6667 20H10.6667V14.6666H9.33333V20H5.33333V14.6666H4V20C4 20.3536 4.14048 20.6927 4.39052 20.9428C4.64057 21.1928 4.97971 21.3333 5.33333 21.3333H18.6667C19.0203 21.3333 19.3594 21.1928 19.6095 20.9428C19.8595 20.6927 20 20.3536 20 20V14.6666H18.6667V20Z" fill="white"/>
<path id="Vector_2" d="M22.5267 8.84663L19.8067 3.40663C19.6963 3.18448 19.5261 2.99754 19.3153 2.86681C19.1045 2.73608 18.8614 2.66676 18.6133 2.66663H5.38666C5.1386 2.66676 4.8955 2.73608 4.68469 2.86681C4.47387 2.99754 4.30371 3.18448 4.19332 3.40663L1.47332 8.84663C1.38045 9.03295 1.33251 9.23844 1.33332 9.44663V11.5C1.33271 11.8115 1.44122 12.1134 1.63999 12.3533C1.93376 12.69 2.29659 12.9596 2.70381 13.1437C3.11103 13.3277 3.55311 13.422 3.99999 13.42C4.72917 13.4211 5.43611 13.169 5.99999 12.7066C6.56386 13.1692 7.27065 13.422 7.99999 13.422C8.72933 13.422 9.43612 13.1692 9.99999 12.7066C10.5639 13.1692 11.2706 13.422 12 13.422C12.7293 13.422 13.4361 13.1692 14 12.7066C14.5639 13.1692 15.2706 13.422 16 13.422C16.7293 13.422 17.4361 13.1692 18 12.7066C18.6294 13.2234 19.4347 13.4761 20.2466 13.4114C21.0584 13.3468 21.8136 12.9699 22.3533 12.36C22.5545 12.121 22.6654 11.819 22.6667 11.5066V9.44663C22.6675 9.23844 22.6195 9.03295 22.5267 8.84663ZM20 12.0866C19.7152 12.086 19.4348 12.0172 19.182 11.8862C18.9292 11.7552 18.7113 11.5656 18.5467 11.3333L18 10.5866L17.46 11.3333C17.2922 11.562 17.0729 11.748 16.8198 11.8762C16.5667 12.0044 16.287 12.0712 16.0033 12.0712C15.7196 12.0712 15.4399 12.0044 15.1869 11.8762C14.9338 11.748 14.7145 11.562 14.5467 11.3333L14 10.5866L13.46 11.3333C13.2922 11.562 13.0729 11.748 12.8198 11.8762C12.5667 12.0044 12.287 12.0712 12.0033 12.0712C11.7196 12.0712 11.4399 12.0044 11.1869 11.8762C10.9338 11.748 10.7145 11.562 10.5467 11.3333L9.99999 10.5866L9.45999 11.3333C9.29217 11.562 9.07285 11.748 8.81978 11.8762C8.56672 12.0044 8.28701 12.0712 8.00332 12.0712C7.71963 12.0712 7.43993 12.0044 7.18686 11.8762C6.93379 11.748 6.71447 11.562 6.54666 11.3333L5.99999 10.5866L5.45332 11.3333C5.28864 11.5656 5.07081 11.7552 4.81801 11.8862C4.5652 12.0172 4.28474 12.086 3.99999 12.0866C3.74875 12.0897 3.49976 12.0389 3.26978 11.9377C3.0398 11.8365 2.83415 11.6873 2.66666 11.5V9.44663L5.38666 3.99996H18.6133L21.3333 9.43996V11.48C21.1668 11.6699 20.9618 11.8222 20.732 11.9268C20.5021 12.0314 20.2526 12.0859 20 12.0866Z" fill="white"/>
</g>
<defs>
<clipPath id="clip0_1791_743">
<rect width="24" height="24" fill="white"/>
</clipPath>
</defs>
</svg>
