<svg width="24" height="24" viewBox="0 0 24 24" fill="none" xmlns="http://www.w3.org/2000/svg">
<g clip-path="url(#clip0_1702_1865)">
<path d="M23.2 23.2L16.8 16.8M10.4 20C9.1393 20 7.89095 19.7517 6.72623 19.2692C5.5615 18.7868 4.50321 18.0797 3.61176 17.1882C2.72032 16.2968 2.01319 15.2385 1.53074 14.0737C1.0483 12.909 0.799988 11.6607 0.799988 10.4C0.799988 9.1393 1.0483 7.89095 1.53074 6.72623C2.01319 5.5615 2.72032 4.50321 3.61176 3.61176C4.50321 2.72032 5.5615 2.01319 6.72623 1.53074C7.89095 1.0483 9.1393 0.799988 10.4 0.799988C12.9461 0.799988 15.3879 1.81141 17.1882 3.61176C18.9886 5.41211 20 7.85391 20 10.4C20 12.9461 18.9886 15.3879 17.1882 17.1882C15.3879 18.9886 12.9461 20 10.4 20Z" stroke="black"/>
</g>
<defs>
<clipPath id="clip0_1702_1865">
<rect width="24" height="24" fill="white"/>
</clipPath>
</defs>
</svg>
