<svg width="24" height="24" viewBox="0 0 24 24" fill="none" xmlns="http://www.w3.org/2000/svg">
<path d="M20.25 6.9375H5.25C5.00136 6.9375 4.7629 6.83873 4.58709 6.66291C4.41127 6.4871 4.3125 6.24864 4.3125 6C4.3125 5.75136 4.41127 5.5129 4.58709 5.33709C4.7629 5.16127 5.00136 5.0625 5.25 5.0625H18C18.1492 5.0625 18.2923 5.00324 18.3977 4.89775C18.5032 4.79226 18.5625 4.64918 18.5625 4.5C18.5625 4.35082 18.5032 4.20774 18.3977 4.10225C18.2923 3.99676 18.1492 3.9375 18 3.9375H5.25C4.70299 3.9375 4.17839 4.1548 3.79159 4.54159C3.4048 4.92839 3.1875 5.45299 3.1875 6V18C3.1875 18.547 3.4048 19.0716 3.79159 19.4584C4.17839 19.8452 4.70299 20.0625 5.25 20.0625H20.25C20.5981 20.0625 20.9319 19.9242 21.1781 19.6781C21.4242 19.4319 21.5625 19.0981 21.5625 18.75V8.25C21.5625 7.9019 21.4242 7.56806 21.1781 7.32192C20.9319 7.07578 20.5981 6.9375 20.25 6.9375ZM20.4375 18.75C20.4375 18.7997 20.4177 18.8474 20.3826 18.8826C20.3474 18.9177 20.2997 18.9375 20.25 18.9375H5.25C5.00136 18.9375 4.7629 18.8387 4.58709 18.6629C4.41127 18.4871 4.3125 18.2486 4.3125 18V7.83656C4.60255 7.98544 4.92397 8.0629 5.25 8.0625H20.25C20.2997 8.0625 20.3474 8.08225 20.3826 8.11742C20.4177 8.15258 20.4375 8.20027 20.4375 8.25V18.75ZM17.8125 13.125C17.8125 13.3104 17.7575 13.4917 17.6545 13.6458C17.5515 13.8 17.4051 13.9202 17.2338 13.9911C17.0625 14.0621 16.874 14.0807 16.6921 14.0445C16.5102 14.0083 16.3432 13.919 16.2121 13.7879C16.081 13.6568 15.9917 13.4898 15.9555 13.3079C15.9193 13.126 15.9379 12.9375 16.0089 12.7662C16.0798 12.5949 16.2 12.4485 16.3542 12.3455C16.5083 12.2425 16.6896 12.1875 16.875 12.1875C17.1236 12.1875 17.3621 12.2863 17.5379 12.4621C17.7137 12.6379 17.8125 12.8764 17.8125 13.125Z" fill="black"/>
</svg>
