<svg width="200" height="46" viewBox="0 0 200 46" fill="none" xmlns="http://www.w3.org/2000/svg">
<g clip-path="url(#clip0_1702_1996)">
<path d="M71.028 44L75.508 34.2H76.53L81.01 44H79.918L75.802 34.802H76.222L72.106 44H71.028ZM72.792 41.382L73.1 40.542H78.798L79.106 41.382H72.792ZM93.7504 44.084C93.0131 44.084 92.3318 43.9627 91.7064 43.72C91.0811 43.468 90.5398 43.118 90.0824 42.67C89.6251 42.222 89.2658 41.6947 89.0044 41.088C88.7524 40.4813 88.6264 39.8187 88.6264 39.1C88.6264 38.3813 88.7524 37.7187 89.0044 37.112C89.2658 36.5053 89.6251 35.978 90.0824 35.53C90.5491 35.082 91.0951 34.7367 91.7204 34.494C92.3458 34.242 93.0271 34.116 93.7644 34.116C94.4738 34.116 95.1411 34.2373 95.7664 34.48C96.3918 34.7133 96.9191 35.068 97.3484 35.544L96.6904 36.202C96.2891 35.7913 95.8458 35.4973 95.3604 35.32C94.8751 35.1333 94.3524 35.04 93.7924 35.04C93.2044 35.04 92.6584 35.1427 92.1544 35.348C91.6504 35.544 91.2118 35.8287 90.8384 36.202C90.4651 36.566 90.1711 36.9953 89.9564 37.49C89.7511 37.9753 89.6484 38.512 89.6484 39.1C89.6484 39.688 89.7511 40.2293 89.9564 40.724C90.1711 41.2093 90.4651 41.6387 90.8384 42.012C91.2118 42.376 91.6504 42.6607 92.1544 42.866C92.6584 43.062 93.2044 43.16 93.7924 43.16C94.3524 43.16 94.8751 43.0667 95.3604 42.88C95.8458 42.6933 96.2891 42.3947 96.6904 41.984L97.3484 42.642C96.9191 43.118 96.3918 43.4773 95.7664 43.72C95.1411 43.9627 94.4691 44.084 93.7504 44.084ZM104.743 44L109.223 34.2H110.245L114.725 44H113.633L109.517 34.802H109.937L105.821 44H104.743ZM106.507 41.382L106.815 40.542H112.513L112.821 41.382H106.507ZM123.346 44V34.2H127.336C128.381 34.2 129.296 34.41 130.08 34.83C130.873 35.2407 131.489 35.8147 131.928 36.552C132.367 37.2893 132.586 38.1387 132.586 39.1C132.586 40.0613 132.367 40.9107 131.928 41.648C131.489 42.3853 130.873 42.964 130.08 43.384C129.296 43.7947 128.381 44 127.336 44H123.346ZM124.382 43.104H127.28C128.148 43.104 128.899 42.936 129.534 42.6C130.178 42.2547 130.677 41.7833 131.032 41.186C131.387 40.5793 131.564 39.884 131.564 39.1C131.564 38.3067 131.387 37.6113 131.032 37.014C130.677 36.4167 130.178 35.95 129.534 35.614C128.899 35.2687 128.148 35.096 127.28 35.096H124.382V43.104ZM142.836 38.582H148.016V39.464H142.836V38.582ZM142.948 43.104H148.842V44H141.912V34.2H148.632V35.096H142.948V43.104ZM158.278 44V34.2H159.132L163.612 41.844H163.164L167.602 34.2H168.456V44H167.462V35.754H167.7L163.612 42.754H163.122L159.006 35.754H159.272V44H158.278ZM180.987 44V40.36L181.225 41.004L177.067 34.2H178.173L181.827 40.178H181.239L184.893 34.2H185.929L181.771 41.004L182.009 40.36V44H180.987Z" fill="#007382"/>
<path fill-rule="evenodd" clip-rule="evenodd" d="M161.373 12.4433C160.519 11.0191 159.21 9.90946 157.64 9.2862C154.318 8.02831 150.573 9.48789 149.045 12.6395H148.984C148.948 12.5739 148.923 12.5027 148.887 12.4433C148.032 11.0191 146.718 9.90946 145.153 9.2862C142.541 8.27713 139.564 8.96556 137.685 11.0072V9.17952H133.564V27.6478H137.685V16.4911C138.261 14.8352 139.662 13.583 141.395 13.1675C142.868 12.9836 144.329 13.5887 145.22 14.7519C145.717 15.3929 145.972 16.1765 145.942 16.9773V27.6478H150.063V16.9773C150.063 16.9658 150.063 16.9539 150.063 16.9419V16.7103C150.603 14.9477 152.058 13.6065 153.882 13.1794C155.355 12.9894 156.816 13.6007 157.707 14.7639C158.204 15.3987 158.458 16.188 158.428 16.9836V27.6598H162.55V16.9773C162.604 15.3871 162.198 13.8142 161.373 12.4433ZM60 27.9981H64.1629V17.9963H68.2185C68.7709 17.9963 69.3223 17.9564 69.8679 17.8764C70.4122 17.7964 70.9491 17.6756 71.4744 17.5165C71.9918 17.3603 72.4963 17.1616 72.9784 16.9176C73.4507 16.6785 73.8986 16.3962 74.3184 16.0756C74.7402 15.7528 75.1212 15.3864 75.4589 14.9791C75.8058 14.5599 76.1029 14.1044 76.3518 13.623C76.6174 13.109 76.8068 12.5628 76.9307 12.0002C77.0655 11.388 77.1235 10.7618 77.1235 10.1362C77.1235 9.67337 77.0809 9.21166 76.9997 8.75538C76.9164 8.28957 76.7909 7.83208 76.6309 7.38611C76.4663 6.92772 76.2483 6.49038 75.9825 6.07942C75.7086 5.65604 75.3877 5.26539 75.0287 4.90792C74.6476 4.52832 74.2215 4.1957 73.7652 3.90672C73.2718 3.59471 72.7425 3.33666 72.1991 3.11905C71.5836 2.87251 70.9357 2.70566 70.2805 2.59883C69.5244 2.47563 68.7552 2.42578 67.9899 2.42578H60V27.9981ZM70.1626 6.50146C70.4506 6.6095 70.7311 6.73967 70.9932 6.89923C71.2265 7.04152 71.4455 7.20715 71.6353 7.40127L71.6428 7.40914C71.8214 7.58962 71.9801 7.78874 72.1115 8.00468C72.2415 8.21865 72.3443 8.447 72.4201 8.68446C72.4984 8.92934 72.5572 9.17952 72.5969 9.43334C72.6365 9.69065 72.6558 9.95068 72.6558 10.2112C72.6558 10.8172 72.5716 11.4354 72.333 11.9981C72.1228 12.4939 71.8033 12.9177 71.3777 13.2566C70.9281 13.6139 70.4136 13.8679 69.8608 14.0335C69.2217 14.2247 68.5422 14.2937 67.8753 14.2937H64.1629V6.12838H67.7234C68.1654 6.12838 68.615 6.14989 69.0528 6.21626C69.4195 6.27188 69.7837 6.35765 70.1302 6.48873L70.1576 6.49903L70.1626 6.50146ZM126.734 9.18528C125.358 9.60078 124.109 10.3485 123.103 11.3633C122.999 11.4644 122.927 11.6007 122.823 11.7074V9.18528H118.702V27.6598H122.823V16.4911C123.351 15.4049 124.182 14.4849 125.219 13.8439C125.94 13.3987 126.764 13.1435 127.613 13.1023C128.382 13.1138 129.146 13.1852 129.904 13.3158L131.146 9.20922C129.722 8.69264 128.158 8.68688 126.734 9.18528ZM115.738 17.66C115.702 16.2891 115.411 14.9419 114.865 13.6839C114.266 12.3067 113.284 11.1201 112.028 10.2595C110.78 9.43471 109.325 8.95405 107.816 8.87661C104.998 8.64537 102.233 9.70747 100.318 11.7491L102.482 14.2474C103.985 13.3872 105.731 13.0071 107.471 13.1617C108.98 13.2211 110.326 14.0933 110.98 15.4288C111.077 15.6601 111.162 15.8916 111.234 16.1348C109.568 15.2742 107.677 14.9122 105.798 15.108C104.155 15.2148 102.591 15.8616 101.36 16.9419C100.015 18.2119 99.342 20.0099 99.5175 21.826C99.6817 23.6421 100.615 25.3099 102.088 26.4195C103.428 27.4343 105.07 27.9804 106.761 27.9862C108.562 27.9981 110.295 27.3214 111.598 26.1108V27.6478H115.72V21.0961L115.738 17.66ZM107.016 23.6599C105.385 23.3335 103.822 22.5559 103.652 21.3808C103.506 20.758 103.67 20.1052 104.088 19.6125C104.688 19.0247 105.465 18.6394 106.3 18.5028C108.138 18.0933 110.065 18.4728 111.598 19.5531V22.3306C110.332 23.375 108.677 23.8619 107.028 23.6599H107.016ZM97.0218 15.8678C96.6884 14.2359 95.9187 12.7165 94.7914 11.4701C93.621 10.1943 92.0636 9.32166 90.3484 8.97177C87.6086 8.44336 84.7955 9.44047 83.0382 11.5591V2.42578H78.9166V27.6363H83.0382V17.3512C83.6074 15.4762 85.0502 13.9803 86.9292 13.3158C88.5786 12.865 90.3484 13.3098 91.5665 14.4849C92.2274 15.0785 92.7002 15.8501 92.9246 16.7046C93.0636 17.8141 93.106 18.9418 93.0517 20.0635V27.642H97.1671V20.0697C97.2222 18.6629 97.1738 17.2622 97.0218 15.8678Z" fill="#007382"/>
<path fill-rule="evenodd" clip-rule="evenodd" d="M169.884 27.6703V2.77428H165.508V27.6703H169.884ZM197.203 21.7887C200.822 16.0622 199.361 8.57835 193.839 4.56072C188.323 0.543082 180.582 1.33243 176.025 6.37065C171.466 11.4093 171.605 19.0291 176.351 23.9074C181.091 28.78 188.857 29.2903 194.221 25.0826C194.476 25.421 194.748 25.7413 195.051 26.0442C196.258 27.1185 197.779 27.7948 199.397 27.9787L199.998 24.4952C198.664 24.1094 197.609 23.0946 197.203 21.7887ZM186.196 23.3913C182.146 23.3616 178.685 20.5308 177.927 16.6376C177.17 12.7443 179.334 8.86931 183.086 7.39169C186.838 5.90771 191.142 7.23137 193.354 10.5486C195.573 13.866 195.082 18.2517 192.19 21.0233C190.584 22.5545 188.432 23.4033 186.189 23.3851L186.196 23.3913Z" fill="#007382"/>
<path fill-rule="evenodd" clip-rule="evenodd" d="M6.11958 45.9986H37.1308C38.8105 45.9986 40.3359 45.3179 41.4413 44.221C42.5468 43.1242 43.2332 41.6101 43.2332 39.9435C43.2332 38.2768 42.5468 36.7627 41.4413 35.6659C40.3359 34.5692 38.8105 33.8883 37.1308 33.8883H14.4768H12.9383C12.3259 33.888 11.8297 33.3951 11.8297 32.7875C11.8297 32.6622 11.8505 32.5416 11.8892 32.4297L11.3747 33.3138C11.2584 33.5145 11.1313 33.7059 10.9956 33.8883H6.11958V36.3424H12.8267H37.1308C38.1278 36.3424 39.0349 36.7477 39.6932 37.4013C40.3513 38.0543 40.7602 38.9543 40.7602 39.9435C40.7595 40.9326 40.3513 41.8328 39.6932 42.4859C39.0349 43.1392 38.1278 43.5445 37.1308 43.5445H6.11958C5.43701 43.5445 4.88281 44.094 4.88281 44.7715C4.88281 45.4494 5.43701 45.9986 6.11958 45.9986ZM8.60228 41.1706C8.26085 41.1706 7.95177 41.0329 7.72786 40.811C7.50441 40.5891 7.36551 40.2824 7.36551 39.9435C7.36551 39.6048 7.50441 39.2978 7.72786 39.0759L7.72878 39.0765C7.95284 38.854 8.26222 38.7165 8.60228 38.7165H35.9904C36.3306 38.7165 36.6389 38.8536 36.8633 39.0759L36.8649 39.077C37.0882 39.2995 37.2273 39.6062 37.2273 39.9435C37.2273 40.281 37.0882 40.588 36.8643 40.8104L36.8649 40.811C36.641 41.0329 36.3319 41.1706 35.9904 41.1706H8.60228Z" fill="#007382"/>
<path fill-rule="evenodd" clip-rule="evenodd" d="M18.4615 1.84055L2.95567 28.4924C2.45748 29.3489 2.35736 30.3315 2.59882 31.2237C2.83921 32.1161 3.42043 32.9172 4.28387 33.4119C5.1467 33.9063 6.13681 34.0049 7.03612 33.766C7.93512 33.5269 8.74269 32.9501 9.24088 32.0934L21.3928 11.2061L24.7466 5.44198L26.8882 6.66902L24.4503 10.8592C24.541 11.0672 24.6456 11.2718 24.7617 11.4725L25.2764 12.3568C25.1976 12.2674 25.1036 12.1889 24.9945 12.1264C24.4638 11.8224 23.7853 12.0028 23.479 12.5291L22.7099 13.8513L11.3828 33.3209C10.543 34.7639 9.18594 35.7348 7.67595 36.136C6.16597 36.5379 4.50153 36.3704 3.0471 35.537C1.59298 34.7038 0.614613 33.3571 0.210141 31.8586C-0.194637 30.3604 -0.0258266 28.7087 0.813952 27.2654L16.3197 0.613519C16.6608 0.0267361 17.4175 -0.174259 18.0088 0.164724C18.6001 0.503253 18.8027 1.25377 18.4615 1.84055ZM19.2919 5.16116C19.4625 4.86776 19.7371 4.67117 20.0425 4.58968C20.3482 4.50834 20.6854 4.54287 20.981 4.71236C21.2767 4.8814 21.4751 5.1539 21.5569 5.45729L21.5561 5.45758C21.6378 5.76158 21.6035 6.09587 21.4333 6.3882L7.7393 29.9265C7.56911 30.2185 7.29529 30.4151 6.98926 30.4969L6.98759 30.4972C6.68156 30.5784 6.3444 30.5442 6.05012 30.3753C5.75585 30.2065 5.55728 29.9341 5.47486 29.6301L5.47455 29.6304C5.39213 29.327 5.42693 28.9924 5.59772 28.6995L19.2919 5.16116Z" fill="#007382"/>
<path fill-rule="evenodd" clip-rule="evenodd" d="M48.6921 33.2973L33.1864 6.64557C32.6883 5.78902 31.8802 5.21208 30.9814 4.97322C30.0824 4.73405 29.0923 4.83296 28.2294 5.3275C27.3663 5.82188 26.7851 6.6233 26.5444 7.51544C26.3032 8.40789 26.403 9.39001 26.9012 10.2466L39.0531 31.134L42.4069 36.8984L40.2652 38.1254L37.8274 33.9349C37.6002 33.9093 37.3696 33.8965 37.1362 33.8965H36.107C36.2249 33.8734 36.3404 33.8316 36.4492 33.7688C36.9803 33.4648 37.1617 32.792 36.8557 32.2653L36.0863 30.9433L24.7591 11.4736C23.9193 10.0303 23.7509 8.37865 24.1554 6.88049C24.5602 5.38233 25.5385 4.03533 26.9927 3.20196C28.4474 2.36889 30.1114 2.20152 31.6212 2.60291C33.1315 3.00429 34.4882 3.97506 35.3282 5.41854L50.8335 32.0702C51.1751 32.657 50.9726 33.4077 50.3813 33.7465C49.79 34.0852 49.0332 33.884 48.6921 33.2973ZM45.3788 32.3508C45.5499 32.6441 45.5844 32.9784 45.502 33.2817C45.4206 33.5851 45.222 33.8575 44.9264 34.027C44.6307 34.1964 44.2939 34.2306 43.9883 34.1493L43.9886 34.1487C43.682 34.0672 43.4074 33.8701 43.2372 33.5778L29.5433 10.0399C29.3736 9.74746 29.3388 9.41363 29.4201 9.10994L29.4207 9.10827C29.5031 8.80458 29.7016 8.53239 29.9955 8.36366C30.2906 8.19492 30.6274 8.16069 30.9341 8.24202V8.24112C31.2398 8.32246 31.5141 8.51952 31.6847 8.81291L45.3788 32.3508Z" fill="#007382"/>
</g>
<defs>
<clipPath id="clip0_1702_1996">
<rect width="200" height="46" fill="white"/>
</clipPath>
</defs>
</svg>
